<svg width="16" height="17" viewBox="0 0 16 17" fill="none" xmlns="http://www.w3.org/2000/svg">
<path d="M7.33325 12.307H8.66659V8.30698H7.33325V12.307ZM7.99992 2.30698C4.31992 2.30698 1.33325 5.29364 1.33325 8.97364C1.33325 12.6536 4.31992 15.6403 7.99992 15.6403C11.6799 15.6403 14.6666 12.6536 14.6666 8.97364C14.6666 5.29364 11.6799 2.30698 7.99992 2.30698ZM7.99992 14.307C5.05992 14.307 2.66659 11.9136 2.66659 8.97364C2.66659 6.03364 5.05992 3.64031 7.99992 3.64031C10.9399 3.64031 13.3333 6.03364 13.3333 8.97364C13.3333 11.9136 10.9399 14.307 7.99992 14.307ZM7.33325 6.97364H8.66659V5.64031H7.33325V6.97364Z" fill="#3B755F"/>
<path d="M7.33325 5.64029H8.66659V6.97362H7.33325V5.64029ZM7.33325 8.30696H8.66659V12.307H7.33325V8.30696Z" fill="#3B755F"/>
<path d="M7.99992 2.30698C4.31992 2.30698 1.33325 5.29364 1.33325 8.97364C1.33325 12.6536 4.31992 15.6403 7.99992 15.6403C11.6799 15.6403 14.6666 12.6536 14.6666 8.97364C14.6666 5.29364 11.6799 2.30698 7.99992 2.30698ZM7.99992 14.307C5.05992 14.307 2.66659 11.9136 2.66659 8.97364C2.66659 6.03364 5.05992 3.64031 7.99992 3.64031C10.9399 3.64031 13.3333 6.03364 13.3333 8.97364C13.3333 11.9136 10.9399 14.307 7.99992 14.307Z" fill="#3B755F"/>
</svg>
